<svg id="Layer_1" data-name="Layer 1" xmlns="http://www.w3.org/2000/svg" viewBox="0 0 400 400">
  <defs>
    <style>.cls-1{fill:#fff;}.cls-2{fill:none;stroke:#000;stroke-miterlimit:10;stroke-width:11px;}</style>
  </defs>
  <path class="cls-1" d="M123.45,139.52l-6.81-2.16-1-3.69a6,6,0,0,0-5.79-4.42H91.06l-18.93-6h42.29a6,6,0,0,1,5.79,4.42Z"/>
  <path class="cls-1" d="M319.11,156.21l-27.71,80a6,6,0,0,1-5.67,4H155.58a6,6,0,0,1-5.79-4.42l-26.34-96.31,6.81,2.16,24.11,88.15a6,6,0,0,0,5.79,4.42H281.45a6,6,0,0,0,5.67-4l23.56-68a6,6,0,0,0-5.67-8H157a6,6,0,0,1-6-6H313.44A6,6,0,0,1,319.11,156.21Z"/>
  <path d="M327.54,150.21l-31.87,92a6,6,0,0,1-5.67,4H151a6,6,0,0,1-5.79-4.42L116.64,137.36l-1-3.69a6,6,0,0,0-5.79-4.42H78.13a6,6,0,1,1,0-12H119a6,6,0,0,1,5.79,4.42l5.47,20,24.11,88.15a6,6,0,0,0,5.79,4.42H281.45a6,6,0,0,0,5.67-4l23.56-68a6,6,0,0,0-5.67-8H157a6,6,0,0,1,0-12H321.87A6,6,0,0,1,327.54,150.21Z"/>
  <circle class="cls-2" cx="182" cy="264.75" r="18"/>
  <circle class="cls-2" cx="266.61" cy="263.45" r="18"/>
</svg>